<?xml version="1.0" encoding="UTF-8" standalone="no"?>
<!-- Created with Inkscape (http://www.inkscape.org/) -->

<svg
   xmlns:dc="http://purl.org/dc/elements/1.1/"
   xmlns:cc="http://creativecommons.org/ns#"
   xmlns:rdf="http://www.w3.org/1999/02/22-rdf-syntax-ns#"
   xmlns:svg="http://www.w3.org/2000/svg"
   xmlns="http://www.w3.org/2000/svg"
   xmlns:sodipodi="http://sodipodi.sourceforge.net/DTD/sodipodi-0.dtd"
   xmlns:inkscape="http://www.inkscape.org/namespaces/inkscape"
   id="svg8"
   version="1.1"
   viewBox="0 0 27.157961 8.0359294"
   height="8.0359297mm"
   width="27.157961mm"
   inkscape:version="0.92.3 (2405546, 2018-03-11)"
   sodipodi:docname="tunnel.svg">
  <sodipodi:namedview
     inkscape:snap-global="false"
     inkscape:window-maximized="1"
     inkscape:window-y="34"
     inkscape:window-x="0"
     inkscape:window-height="1009"
     inkscape:window-width="1920"
     showgrid="false"
     inkscape:current-layer="layer1"
     inkscape:document-units="mm"
     inkscape:cy="7.3124412"
     inkscape:cx="66.541889"
     inkscape:zoom="11.2"
     inkscape:pageshadow="2"
     inkscape:pageopacity="0.0"
     borderopacity="1.0"
     bordercolor="#666666"
     pagecolor="#ffffff"
     id="base"
     fit-margin-top="0"
     fit-margin-left="0"
     fit-margin-right="0"
     fit-margin-bottom="0">
    <inkscape:grid
       id="grid10"
       type="xygrid"
       originx="-1.274565"
       originy="-289.66981" />
  </sodipodi:namedview>
  <defs
     id="defs2">
    <marker
       inkscape:isstock="true"
       style="overflow:visible"
       id="Arrow1Mend"
       refX="0"
       refY="0"
       orient="auto"
       inkscape:stockid="Arrow1Mend">
      <path
         transform="matrix(-0.4,0,0,-0.4,-4,0)"
         style="fill:#6c6c6c;fill-opacity:1;fill-rule:evenodd;stroke:#6c6c6c;stroke-width:1.00000003pt;stroke-opacity:1"
         d="M 0,0 5,-5 -12.5,0 5,5 Z"
         id="path831"
         inkscape:connector-curvature="0" />
    </marker>
    <marker
       inkscape:isstock="true"
       style="overflow:visible"
       id="Arrow1Lend"
       refX="0"
       refY="0"
       orient="auto"
       inkscape:stockid="Arrow1Lend">
      <path
         transform="matrix(-0.8,0,0,-0.8,-10,0)"
         style="fill:#000000;fill-opacity:1;fill-rule:evenodd;stroke:#000000;stroke-width:1.00000003pt;stroke-opacity:1"
         d="M 0,0 5,-5 -12.5,0 5,5 Z"
         id="path825"
         inkscape:connector-curvature="0" />
    </marker>
  </defs>
  <metadata
     id="metadata5">
    <rdf:RDF>
      <cc:Work
         rdf:about="">
        <dc:format>image/svg+xml</dc:format>
        <dc:type
           rdf:resource="http://purl.org/dc/dcmitype/StillImage" />
        <dc:title></dc:title>
      </cc:Work>
    </rdf:RDF>
  </metadata>
  <g
     id="layer1"
     inkscape:groupmode="layer"
     inkscape:label="Ebene 1"
     transform="translate(-1.2745652,0.70577094)">
    <path
       inkscape:connector-curvature="0"
       id="path12"
       d="M 1.3229166,4.6354166 H 28.31477"
       style="fill:none;stroke:#6c6c6c;stroke-width:0.0597543;stroke-linecap:butt;stroke-linejoin:miter;stroke-miterlimit:4;stroke-dasharray:none;stroke-opacity:1;marker-end:url(#Arrow1Mend)" />
    <path
       id="path1143"
       title="sin(x)"
       d="M 1.3229166,6.3559698 C 1.4586004,6.8711867 1.5942841,7.2059991 1.7299679,7.2696678 1.8656516,7.3333364 2.0013354,7.1240688 2.1370192,6.6999975 2.2727029,6.2759263 2.4083867,5.6407582 2.5440704,4.9677451 2.6797542,4.2947319 2.815438,3.5913317 2.9511217,3.0483558 3.0868055,2.5053799 3.2224892,2.1298379 3.358173,2.0226533 3.4938568,1.9154688 3.6295405,2.0792558 3.7652243,2.4682191 3.9009081,2.8571824 4.0365918,3.4680686 4.1722756,4.1341514 4.3079593,4.8002341 4.4436431,5.5142246 4.5793269,6.0823502 4.7150106,6.6504758 4.8506944,7.0655167 4.9863781,7.215769 5.1220619,7.3660213 5.2577457,7.2483998 5.3934294,6.8961705 5.5291132,6.5439412 5.6647969,5.9598908 5.8004807,5.3035231 5.9361645,4.6471554 6.0718482,3.9255598 6.207532,3.3346596 6.3432157,2.7437595 6.4788995,2.2909549 6.6145833,2.0982629 6.750267,1.905571 6.8859508,1.9765354 7.0216345,2.2905581 7.1573183,2.6045807 7.2930021,3.1593535 7.4286858,3.8032621 7.5643696,4.4471707 7.7000534,5.1733548 7.8357371,5.7845591 7.9714209,6.3957634 8.1071046,6.8844387 8.2427884,7.1187647 8.3784722,7.3530907 8.5141559,7.3290801 8.6498397,7.0545768 8.7855234,6.7800736 8.9212072,6.2568977 9.056891,5.6281403 9.1925747,4.9993828 9.3282585,4.2716463 9.4639422,3.642693 9.599626,3.0137398 9.7353098,2.4912368 9.8709935,2.2162565 10.006677,1.9412761 10.142361,1.9182325 10.278045,2.1520686 c 0.135684,0.2338362 0.271367,0.7232279 0.407051,1.3342056 0.135684,0.6109777 0.271368,1.3372243 0.407051,1.981297 0.135684,0.6440727 0.271368,1.1982189 0.407052,1.512704 0.135683,0.3144852 0.271367,0.3844867 0.407051,0.1922952 0.135684,-0.1921915 0.271367,-0.6457531 0.407051,-1.2363967 0.135684,-0.5906436 0.271368,-1.3123641 0.407051,-1.9688635 0.135684,-0.6564995 0.271368,-1.2399722 0.407052,-1.5926474 0.135684,-0.3526752 0.271367,-0.4693419 0.407051,-0.3195985 0.135684,0.1497434 0.271368,0.5655786 0.407051,1.1334188 0.135684,0.5678402 0.271368,1.2820172 0.407052,1.9481988 0.135683,0.6661817 0.271367,1.2765415 0.407051,1.6659323 0.135684,0.3893908 0.271367,0.552235 0.407051,0.4455658 0.135684,-0.1066692 0.271368,-0.4830396 0.407051,-1.0257025 0.135684,-0.5426628 0.271368,-1.2463106 0.407052,-1.9193893 0.135684,-0.6730787 0.271367,-1.307774 0.407051,-1.7322524 0.135684,-0.4244785 0.271368,-0.6328193 0.407051,-0.5696703 0.135684,0.063149 0.271368,0.3984811 0.407052,0.913698"
       style="fill:none;fill-opacity:1;stroke:#000000;stroke-width:0.1;stroke-linecap:butt;stroke-miterlimit:4;stroke-dasharray:none;stroke-dashoffset:0;stroke-opacity:1"
       inkscape:connector-curvature="0" />
    <path
       inkscape:connector-curvature="0"
       style="fill:none;fill-opacity:1;stroke:#006aff;stroke-width:0.1;stroke-linecap:butt;stroke-miterlimit:4;stroke-dasharray:none;stroke-dashoffset:0;stroke-opacity:1"
       d="m 17.185063,2.8854323 c 0.02332,0.029481 0.04665,0.058207 0.06997,0.086216 0.02332,0.028009 0.04665,0.055298 0.06998,0.081907 0.02332,0.026609 0.04665,0.052534 0.06997,0.077812 0.02332,0.02528 0.04665,0.049908 0.06998,0.073923 0.02332,0.024015 0.04665,0.047412 0.06997,0.070227 0.02332,0.022815 0.04665,0.045043 0.06998,0.066717 0.02332,0.021674 0.04665,0.04279 0.06997,0.063382 0.02332,0.020591 0.04665,0.040651 0.06997,0.060213 0.02332,0.019561 0.04665,0.038619 0.06998,0.057203 0.02332,0.018584 0.04665,0.03669 0.06997,0.054343 0.02332,0.017655 0.04665,0.034855 0.06998,0.051627 0.02332,0.016772 0.04665,0.033112 0.06997,0.049046 0.02332,0.015934 0.04665,0.031457 0.06998,0.046594 0.02332,0.015137 0.04665,0.029884 0.06997,0.044265 0.02332,0.01438 0.04665,0.028391 0.06998,0.042052 0.02332,0.013662 0.04665,0.026972 0.06997,0.039951 0.02332,0.012979 0.04665,0.025624 0.06998,0.037953 0.02332,0.012329 0.04665,0.024343 0.06997,0.036056 0.02332,0.011713 0.04665,0.023126 0.06997,0.034253 0.02332,0.011128 0.04665,0.021969 0.06998,0.032541 0.02332,0.010572 0.04665,0.020871 0.06997,0.030915 0.02332,0.010044 0.04665,0.019828 0.06998,0.029369 0.02332,0.00954 0.04665,0.018836 0.06997,0.027901 0.02332,0.00906 0.04665,0.017896 0.06998,0.026505 0.02332,0.00861 0.04665,0.017 0.06997,0.025181 0.02332,0.00818 0.04665,0.016151 0.06998,0.023923 0.02332,0.00777 0.04665,0.015343 0.06997,0.022726 0.02332,0.00738 0.04665,0.014577 0.06997,0.02159 0.02332,0.00702 0.04665,0.013848 0.06998,0.020511 0.02332,0.00666 0.04665,0.013155 0.06997,0.019486 0.02332,0.00633 0.04665,0.012498 0.06998,0.018512 0.02332,0.00601 0.04665,0.011873 0.06997,0.017587 0.02332,0.00572 0.04665,0.011279 0.06998,0.016707 0.02332,0.00542 0.04665,0.010715 0.06997,0.015872 0.02332,0.00516 0.04665,0.01018 0.06998,0.015079 0.02332,0.0049 0.04665,0.00967 0.06997,0.014325 0.02332,0.00465 0.04665,0.00919 0.06997,0.013608 0.02332,0.00442 0.04665,0.00873 0.06998,0.012929 0.02332,0.0042 0.04665,0.00829 0.06997,0.012282"
       title="exp(-x)"
       id="path1277" />
    <rect
       y="-0.67077094"
       x="17.183403"
       height="5.3061838"
       width="2.6748583"
       id="rect1292"
       style="opacity:1;fill:none;fill-opacity:1;stroke:#000000;stroke-width:0.07;stroke-linecap:butt;stroke-miterlimit:4;stroke-dasharray:none;stroke-dashoffset:0;stroke-opacity:1" />
    <path
       id="path1355"
       title="cos(x)"
       d="m 19.84375,4.3791772 c 0.06784,6.5e-6 0.135684,0.00661 0.203526,0.01933 0.06784,0.012721 0.135683,0.031575 0.203525,0.055165 0.06784,0.02359 0.135684,0.051927 0.203526,0.08294 0.06784,0.031012 0.135684,0.064692 0.203526,0.098596 0.06784,0.033903 0.135683,0.068005 0.203525,0.099845 0.06784,0.03184 0.135684,0.061382 0.203526,0.086506 0.06784,0.025125 0.135684,0.045789 0.203525,0.060528 0.06784,0.014738 0.135684,0.023506 0.203526,0.025705 0.06784,0.0022 0.135684,-0.00221 0.203526,-0.012874 0.06784,-0.010662 0.135684,-0.027606 0.203525,-0.049571 0.06784,-0.021966 0.135684,-0.048967 0.203526,-0.079026 0.06784,-0.030059 0.135684,-0.063173 0.203526,-0.096933 0.06784,-0.033761 0.135683,-0.068148 0.203525,-0.1006778 0.06784,-0.03253 0.135684,-0.063167 0.203526,-0.089712 0.06784,-0.026545 0.135684,-0.048955 0.203526,-0.065637 0.06784,-0.016682 0.135683,-0.027591 0.203525,-0.031972 0.06784,-0.00438 0.135684,-0.00219 0.203526,0.00636 0.06784,0.00856 0.135684,0.023522 0.203526,0.043771 0.06784,0.020249 0.135683,0.045801 0.203525,0.074782 0.06784,0.028981 0.135684,0.061389 0.203526,0.094866 0.06784,0.033478 0.135684,0.068006 0.203525,0.1010892 0.06784,0.033083 0.135684,0.064687 0.203526,0.092542 0.06784,0.027854 0.135684,0.051916 0.203526,0.070472 0.06784,0.018556 0.135684,0.03156 0.203525,0.038106 0.06784,0.00655 0.135684,0.00659 0.203526,1.721e-4 0.06784,-0.00642 0.135684,-0.019339 0.203526,-0.037787 0.06784,-0.018448 0.135683,-0.042444 0.203525,-0.070225 0.06784,-0.027781 0.135684,-0.059348 0.203526,-0.092402 0.06784,-0.033054 0.135684,-0.06758 0.203526,-0.1010782 0.06784,-0.033498 0.135683,-0.065938 0.203525,-0.094985 0.06784,-0.029047 0.135684,-0.054661 0.203526,-0.075013 0.06784,-0.020352 0.135684,-0.035397 0.203526,-0.044081 0.06784,-0.00868 0.135683,-0.010962 0.203525,-0.00671 0.06784,0.00425 0.135684,0.015076 0.203526,0.031646 0.06784,0.01657 0.135684,0.03891 0.203525,0.065375 0.06784,0.026465 0.135684,0.057059 0.203526,0.089552 0.06784,0.032493 0.135684,0.066871 0.203526,0.1006444 0.06784,0.033773 0.135683,0.066913 0.203525,0.097031 0.06784,0.030119 0.135684,0.057177 0.203526,0.07924"
       style="fill:none;fill-opacity:1;stroke:#000000;stroke-width:0.1;stroke-linecap:butt;stroke-miterlimit:4;stroke-dasharray:none;stroke-dashoffset:0;stroke-opacity:1"
       inkscape:connector-curvature="0" />
    <text
       xml:space="preserve"
       style="font-style:normal;font-weight:normal;font-size:3.2455554px;line-height:1.25;font-family:sans-serif;letter-spacing:0px;word-spacing:0px;fill:#000000;fill-opacity:1;stroke:none;stroke-width:0.26458332"
       x="10.441593"
       y="1.3989863"
       id="text1866"><tspan
         sodipodi:role="line"
         id="tspan1864"
         x="10.441593"
         y="1.3989863"
         style="font-size:1.05833328px;stroke-width:0.26458332">I</tspan></text>
    <text
       xml:space="preserve"
       style="font-style:normal;font-weight:normal;font-size:3.2455554px;line-height:1.25;font-family:sans-serif;letter-spacing:0px;word-spacing:0px;fill:#000000;fill-opacity:1;stroke:none;stroke-width:0.26458332"
       x="18.213728"
       y="1.3989863"
       id="text1870"><tspan
         sodipodi:role="line"
         id="tspan1868"
         x="18.213728"
         y="1.3989863"
         style="font-size:1.05833328px;stroke-width:0.26458332">II</tspan></text>
    <text
       xml:space="preserve"
       style="font-style:normal;font-weight:normal;font-size:3.2455554px;line-height:1.25;font-family:sans-serif;letter-spacing:0px;word-spacing:0px;fill:#000000;fill-opacity:1;stroke:none;stroke-width:0.26458332"
       x="25.985865"
       y="1.3989863"
       id="text1874"><tspan
         sodipodi:role="line"
         id="tspan1872"
         x="25.985865"
         y="1.3989863"
         style="font-size:1.0583334px;stroke-width:0.26458332">III</tspan></text>
    <text
       xml:space="preserve"
       style="font-style:normal;font-weight:normal;font-size:3.2455554px;line-height:1.25;font-family:sans-serif;letter-spacing:0px;word-spacing:0px;fill:#000000;fill-opacity:1;stroke:none;stroke-width:0.26458332"
       x="16.688908"
       y="5.4059272"
       id="text1878"><tspan
         sodipodi:role="line"
         id="tspan1876"
         x="16.688908"
         y="5.4059272"
         style="font-size:0.70555562px;stroke-width:0.26458332">-a</tspan></text>
    <text
       xml:space="preserve"
       style="font-style:normal;font-weight:normal;font-size:0.70555556px;line-height:1.25;font-family:sans-serif;letter-spacing:0px;word-spacing:0px;fill:#000000;fill-opacity:1;stroke:none;stroke-width:0.26458332"
       x="19.653656"
       y="5.4177375"
       id="text1882"><tspan
         sodipodi:role="line"
         id="tspan1880"
         x="19.653656"
         y="5.4177375"
         style="stroke-width:0.26458332">a</tspan></text>
    <path
       style="fill:none;stroke:#000000;stroke-width:0.07;stroke-linecap:butt;stroke-linejoin:miter;stroke-miterlimit:4;stroke-dasharray:none;stroke-opacity:1"
       d="M 17.185388,4.6395887 V 4.904172"
       id="path1884"
       inkscape:connector-curvature="0" />
    <path
       style="fill:none;stroke:#000000;stroke-width:0.07;stroke-linecap:butt;stroke-linejoin:miter;stroke-miterlimit:4;stroke-dasharray:none;stroke-opacity:1"
       d="M 19.860454,4.6395887 V 4.904172"
       id="path1886"
       inkscape:connector-curvature="0" />
  </g>
</svg>
